<svg width="701" height="194" viewBox="0 0 701 194" fill="none" xmlns="http://www.w3.org/2000/svg">
<path fill-rule="evenodd" clip-rule="evenodd" d="M701 0H0V194H701V0ZM75.5 38.5H53.5L88.5 155.5H110L145.5 38.5H121.5L99 127L75.5 38.5ZM213 38.5H245.5L278.5 155.5H255.5L247.5 127L211.5 126.5L204.5 155.5H179.5L213 38.5ZM243.5 107.5H217L230 57.5L243.5 107.5ZM358.5 38.5H336V155.5H408V135H358.5V38.5ZM437 38H459L482.5 126.5L505 38H529L493.5 155H472L437 38ZM626.5 38.5L577 38V118H626.5V102.5H595V85H623.5V70.5H595V53.5H626.5V38.5Z" fill="#F74843"/>
</svg>
